<svg width="30" height="30" viewBox="0 0 30 30" fill="none" xmlns="http://www.w3.org/2000/svg">
<path d="M23.8792 15.938C23.9224 20.4781 27.9554 21.9889 28 22.0081C27.9658 22.1146 27.3556 24.1611 25.8753 26.2749C24.5956 28.1025 23.2674 29.9233 21.1751 29.961C19.1194 29.998 18.4583 28.7699 16.1079 28.7699C13.7582 28.7699 13.0237 29.9233 11.0777 29.998C9.05812 30.0727 7.52024 28.0219 6.23 26.201C3.59329 22.4764 1.57835 15.6762 4.28391 11.0859C5.62795 8.8063 8.03 7.36289 10.637 7.32586C12.6201 7.28894 14.492 8.62949 15.7043 8.62949C16.9158 8.62949 19.1905 7.01737 21.5818 7.25411C22.5828 7.29485 25.393 7.64915 27.1974 10.2299C27.0519 10.3179 23.8443 12.1425 23.8792 15.9381M20.0156 4.78998C21.0879 3.52185 21.8095 1.75659 21.6126 0C20.0671 0.0606871 18.1983 1.0063 17.0898 2.27367C16.0963 3.39609 15.2263 5.19247 15.461 6.91422C17.1837 7.04447 18.9434 6.05888 20.0156 4.78998Z" fill="black"/>
</svg>
