<svg width="24" height="24" viewBox="0 0 24 24" fill="none" xmlns="http://www.w3.org/2000/svg">
<path d="M19.266 13.5159C19.4975 13.3367 19.6849 13.1069 19.8138 12.8442C19.9427 12.5814 20.0097 12.2926 20.0097 11.9999C20.0097 11.7072 19.9427 11.4183 19.8138 11.1556C19.6849 10.8928 19.4975 10.663 19.266 10.4839C16.2686 8.16449 12.9215 6.33635 9.35002 5.06786L8.69702 4.83586C7.44902 4.39286 6.13002 5.23686 5.96102 6.52586C5.48891 10.1599 5.48891 13.8398 5.96102 17.4739C6.13102 18.7629 7.44902 19.6069 8.69702 19.1639L9.35002 18.9319C12.9215 17.6634 16.2686 15.8352 19.266 13.5159Z" fill="#00AAFF"/>
</svg>
